<?xml version="1.0" encoding="UTF-8"?>
<svg id="Layer_1" xmlns="http://www.w3.org/2000/svg" viewBox="0 0 1200 1200">
  <defs>
    <style>
      .cls-1 {
        fill: #fea626;
      }
    </style>
  </defs>
  <path class="cls-1" d="M599.76,800.76c-10.45-13.32-20.73-26.49-31.09-39.6-8.14-10.3-16.31-20.58-24.58-30.78-8.78-10.84-17.61-21.66-26.57-32.35-13.18-15.72-26.81-31.01-41.35-45.52-11.54-11.52-23.24-22.8-35.96-33.06-9.08-7.33-18.74-13.74-28.39-20.21-1.47-.99-2.7-2.36-4.75-1.85-1.68.42-1.87-.81-2.02-1.99-2.33-18.26-2.75-36.53-1.2-54.91.87-10.33,1.7-20.63,3.14-30.9,1.97-14.08,4.62-28.02,7.64-41.92,5.21-23.96,12.07-47.4,20.29-70.47,2.74-7.69,5.86-15.21,8.94-22.76,1.51-3.7,2.47-4.49,6.39-1.96,23.61,15.25,47.07,30.77,71.66,44.44,8.38,4.66,17.75,7.12,27.57,11.06-3.72-7.4-6.93-14.12-10.44-20.69-13.02-24.42-25.84-48.93-34.53-75.32-4.28-13-8.16-26.14-12.14-39.24-1.06-3.49-.06-6.78,1.4-10.01,11.85-26.14,25.75-51.22,39.1-76.59,11.91-22.62,23.01-45.67,33.63-68.95,6.8-14.9,14.11-29.56,21.16-44.35,3.31-6.94,6.01-14.15,10.24-20.66,1.8-2.77,2.6-2.21,3.81.2,10.64,21.24,20.49,42.85,30.69,64.3,12.33,25.91,24.85,51.73,38.37,77.06,12.56,23.54,25.4,46.97,35.91,71.56,1.48,3.45.82,6.6-.26,9.88-6.65,20.29-12.15,40.99-20.53,60.68-6.61,15.53-14.3,30.57-22.44,45.37-4.11,7.47-7.69,15.24-11.44,22.9-.37.75-1.62,1.61-.48,2.55.86.7,1.79.03,2.75-.29,19.14-6.25,36.18-16.58,53.08-27.22,14.38-9.06,28.85-17.99,42.79-27.74,2.54-1.78,3.75-1.1,4.91,1.7,8.51,20.5,15.95,41.37,21.93,62.76,4.57,16.34,8.55,32.84,11.54,49.52,2.31,12.88,4.18,25.85,5.67,38.89,1.48,12.97,2.27,25.98,2.5,38.95.18,10.42-.76,20.98-2.45,31.42-.56,3.43-2.45,1.59-3.56,2.35-4.99,3.41-10.2,6.5-15.15,9.97-22.84,16-43.1,34.99-62.13,55.24-13.19,14.04-25.68,28.72-37.98,43.57-11.01,13.28-21.93,26.63-32.75,40.06-9.05,11.23-17.79,22.71-26.67,34.08-5.44,6.96-10.87,13.93-16.25,20.83Z"/>
  <path class="cls-1" d="M387.94,635.32c9.05,13,17.24,24.78,25.45,36.55,10.7,15.33,22.2,30.04,34.24,44.35,8.84,10.51,17.86,20.86,27.68,30.4,25.02,24.26,52.63,44.96,84.63,59.33,11.63,5.22,23.71,9.18,35.85,12.99,4.27,1.34,8.03-.25,11.79-1.33,30.5-8.79,58.21-23.27,83.44-42.35,16.24-12.28,31.31-26.02,45.1-41.02,18.02-19.59,34.51-40.45,49.82-62.22,8.35-11.87,16.52-23.87,24.84-35.91,3.02,15.12,5.26,30.35,5.94,45.64.56,12.55.55,25.16-.5,37.81-1.13,13.6-2.71,27.08-5.27,40.46-3.72,19.43-9.54,38.24-16.88,56.61-9.48,23.7-22.05,45.66-37.47,65.9-12.45,16.33-26.76,31-42.2,44.62-20.05,17.68-42.09,32.24-66.03,44.01-14.98,7.36-30.67,12.95-46.74,17.34-5.05,1.38-9.89-1.68-14.61-3.17-31.51-9.91-60.17-25.36-86.46-45.31-13.59-10.31-26.39-21.55-37.93-34.07-15.81-17.16-29.69-35.76-41.28-56.11-15.1-26.51-25.22-54.87-31.96-84.45-2.76-12.1-4.67-24.42-5.48-36.91-.69-10.54-2.13-21.07-1.77-31.61.64-18.71,1.63-37.43,5.77-55.8.32-1.41.04-2.96.04-5.75Z"/>
  <path class="cls-1" d="M906.63,418.16c6.68,2,12.32,5.95,18.15,9.38,17.64,10.39,34.31,22.29,50.16,35.2,12.55,10.22,24.86,20.86,35.89,32.76,21.28,22.95,40.17,47.65,53.38,76.25,8.59,18.61,14.52,38,17.87,58.31,2.6,15.71,2.65,31.51,1.51,47.09-1.57,21.62-10.01,40.96-24.08,57.89-12.35,14.86-27.41,25.92-44.53,34.32-20.01,9.83-41.3,14.51-63.53,12.46-26.58-2.45-48.07-14.73-64.95-35.58-20.65-25.52-31.11-55.28-37.61-86.84-1.39-6.74-2.92-13.45-3.03-20.38-.01-.91-1.49-1.74-.41-2.64,1.08-.91,2.1,0,3.14.51,7.8,3.74,15.55,7.59,23.46,11.09,23.19,10.27,46.98,18.9,72.12,22.79,13.33,2.06,26.86,2.7,40.13-1.72,15.27-5.08,23.68-15.86,26.55-31.21,2.55-13.65.88-27.19-1.9-40.67-4.25-20.59-11.25-40.27-20.58-59.01-9.19-18.45-20.24-35.87-31.82-52.93-13.71-20.2-28.46-39.62-43.71-58.66-2.15-2.69-4.37-5.33-6.23-8.42Z"/>
  <path class="cls-1" d="M294.01,418.36c-22.4,26.92-42.97,54.64-61.6,83.78-17.43,27.25-31.96,55.8-39.68,87.48-3.37,13.84-5.76,27.79-4.57,42.02,1.79,21.41,13.85,36.05,35.65,39.4,19.33,2.97,37.94-.62,56.41-5.66,23.72-6.47,46.13-16.33,68.34-26.68,1.88-.88,3.68-3.51,5.54-2.36,1.85,1.14-.02,3.82-.19,5.76-1.06,12.24-3.79,24.22-7.05,36.01-5.84,21.05-14.08,41.11-26.54,59.25-12.7,18.49-28.8,32.88-50.33,40.04-14.68,4.88-29.86,5.67-45.34,3.75-15.84-1.96-30.62-6.85-44.55-14.24-23.02-12.22-41.67-29.18-53.35-52.83-6.96-14.09-10.29-29.09-10.81-44.97-.92-27.99,3.22-54.97,13.05-81.18,8.41-22.4,20.33-42.77,34.55-61.9,9.85-13.26,20.6-25.78,32.42-37.28,17.58-17.12,36.53-32.62,56.69-46.65,11.41-7.95,23.4-14.95,35.37-21.99,1.59-.94,3.18-2.47,6-1.75Z"/>
  <path class="cls-1" d="M715.2,975c1.64,8.89,2.71,17.64,2.93,26.62.61,25.09-6.75,47.56-21.19,67.72-12.75,17.8-29.25,31.56-48.29,42.3-14.31,8.07-29.53,13.75-45.45,17.75-6.65,1.67-12.34-1.29-18.1-3.07-21.95-6.78-41.83-17.43-59.58-32.24-21.55-17.97-36.02-40.17-42.17-67.57-3.54-15.79-3.27-31.7.24-47.5.3-1.37-.04-2.49.13-4.95,31.48,34.54,71.03,48.71,116.02,48.76,44.91.04,84.13-14.52,115.46-47.83Z"/>
</svg>